<svg width="17" height="10" viewBox="0 0 17 10" fill="none" xmlns="http://www.w3.org/2000/svg">
<path d="M16.051 0.91897C15.7667 0.650622 15.382 0.5 14.981 0.5C14.58 0.5 14.1953 0.650622 13.9109 0.91897L8.46205 6.01935L3.08905 0.91897C2.80468 0.650622 2.41999 0.5 2.01901 0.5C1.61803 0.5 1.23334 0.650622 0.948962 0.91897C0.806701 1.05291 0.693785 1.21226 0.616729 1.38784C0.539672 1.56341 0.5 1.75173 0.5 1.94193C0.5 2.13213 0.539672 2.32045 0.616729 2.49602C0.693785 2.67159 0.806701 2.83095 0.948962 2.96489L7.38442 9.07382C7.52552 9.20886 7.69339 9.31605 7.87835 9.38919C8.0633 9.46234 8.26169 9.5 8.46205 9.5C8.66242 9.5 8.86081 9.46234 9.04576 9.38919C9.23072 9.31605 9.39859 9.20886 9.53969 9.07382L16.051 2.96489C16.1933 2.83095 16.3062 2.67159 16.3833 2.49602C16.4603 2.32045 16.5 2.13213 16.5 1.94193C16.5 1.75173 16.4603 1.56341 16.3833 1.38784C16.3062 1.21226 16.1933 1.05291 16.051 0.91897Z" fill="#2A2B2C"/>
</svg>
